<?xml version="1.0" encoding="utf-8"?>
<!-- Generator: Adobe Illustrator 25.4.1, SVG Export Plug-In . SVG Version: 6.00 Build 0)  -->
<svg version="1.1" id="Layer_1" xmlns="http://www.w3.org/2000/svg" xmlns:xlink="http://www.w3.org/1999/xlink" x="0px" y="0px"
	 viewBox="0 0 15.5 42.7" style="enable-background:new 0 0 15.5 42.7;" xml:space="preserve">
<style type="text/css">
	.st0{fill:#CD2527;}
	.st1{fill:#353535;}
	.st2{fill:#D8646A;}
	.st3{fill:#FFFFFF;}
	.st4{fill:none;}
</style>
<g id="Layer_1_00000108998590218198305670000000117258480486959284_">
	<g>
		<path class="st0" d="M12,42H4c-1.8,0-3.2-1.4-3.2-3.2V5.5c0-1.8,1.4-3.2,3.2-3.2h8c1.8,0,3.2,1.4,3.2,3.2v33.3
			C15.2,40.5,13.8,42,12,42z"/>
		<path class="st1" d="M8.7,41.4H7.1c-3.3,0-5.9-2.6-5.9-5.9V8.9c0-3.3,2.6-5.9,5.9-5.9h1.7c3.3,0,5.9,2.6,5.9,5.9v26.5
			C14.6,38.7,12,41.4,8.7,41.4z"/>
		<rect x="2.8" y="6.6" class="st0" width="10.1" height="32.7"/>
		<path class="st2" d="M11.4,39H4.3c-0.6,0-1.1-0.5-1.1-1.1V8.6c0-0.6,0.5-1.1,1.1-1.1h7.1c0.6,0,1.1,0.5,1.1,1.1v29.4
			C12.4,38.5,12,39,11.4,39z"/>
		<g>
			<rect x="3.9" y="7.5" class="st3" width="1.3" height="31.1"/>
		</g>
		<g>
			<rect x="6.2" y="7.5" class="st3" width="1.3" height="31.1"/>
		</g>
		<g>
			<rect x="8.3" y="7.5" class="st3" width="1.3" height="31.1"/>
		</g>
		<g>
			<rect x="10.4" y="7.4" class="st3" width="1.3" height="31.1"/>
		</g>
		<polygon class="st0" points="12.7,6.6 13.8,3.9 14.4,4.2 12.8,7.3 		"/>
		<polygon class="st0" points="2.8,7.5 1.2,4.2 1.8,3.7 3,6.8 		"/>
		<polyline class="st0" points="2.8,39.2 0.8,40.2 1.6,40.7 2.9,39.3 		"/>
		<polygon class="st0" points="12.6,39 13.6,40.7 14.6,40 		"/>
		<line class="st4" x1="1.2" y1="36.1" x2="2.8" y2="36.1"/>
		<g>
			<rect x="1.1" y="29.4" class="st0" width="1.7" height="0.3"/>
		</g>
		<g>
			<rect x="1.1" y="24.3" class="st0" width="1.8" height="0.3"/>
		</g>
		<g>
			<rect x="1.1" y="19.2" class="st0" width="1.7" height="0.3"/>
		</g>
		<g>
			<rect x="1.1" y="14.6" class="st0" width="1.7" height="0.3"/>
		</g>
		<g>
			<rect x="1.2" y="9.2" class="st0" width="1.6" height="0.4"/>
		</g>
		<g>
			<rect x="12.8" y="35.8" class="st0" width="1.8" height="0.3"/>
		</g>
		<g>
			<rect x="12.8" y="29.5" class="st0" width="1.8" height="0.3"/>
		</g>
		<g>
			<rect x="12.8" y="24.3" class="st0" width="1.8" height="0.3"/>
		</g>
		<g>
			<rect x="12.9" y="19.2" class="st0" width="1.8" height="0.3"/>
		</g>
		<g>
			<rect x="12.8" y="14.8" class="st0" width="1.8" height="0.3"/>
		</g>
		<g>
			<rect x="12.8" y="9.2" class="st0" width="1.8" height="0.4"/>
		</g>
		<path class="st0" d="M1,3.1c0,0,6.6-5.1,14-0.3L1,3.1z"/>
		<path class="st3" d="M1.3,2.6l1.9-0.8c0,0-0.1,1.3-1.1,1.6S1.3,2.6,1.3,2.6z"/>
		<path class="st3" d="M14.9,2.7l-1.8-0.9c0,0,0,1.3,1,1.7S14.9,2.7,14.9,2.7z"/>
	</g>
</g>
<g id="Layer_2_00000173139869683698820850000009583203049305341625_">
</g>
</svg>
