<?xml version="1.0" encoding="utf-8"?>
<!-- Generator: Adobe Illustrator 25.4.1, SVG Export Plug-In . SVG Version: 6.00 Build 0)  -->
<svg version="1.1" id="Layer_1" xmlns="http://www.w3.org/2000/svg" xmlns:xlink="http://www.w3.org/1999/xlink" x="0px" y="0px"
	 viewBox="0 0 17.6 33" style="enable-background:new 0 0 17.6 33;" xml:space="preserve">
<style type="text/css">
	.st0{fill:#969595;}
	.st1{fill:#75807B;}
	.st2{fill:#D6D3CB;}
	.st3{fill:#66716C;}
	.st4{fill:#CD2527;}
	.st5{fill:#A31E22;}
	.st6{fill:#00384B;}
	.st7{fill:#010101;}
	.st8{fill:#343432;}
	.st9{opacity:0.4;fill:#343432;enable-background:new    ;}
	.st10{opacity:0.5;}
	.st11{fill:#1D1D1B;}
	.st12{fill:#E76524;}
	.st13{opacity:0.4;fill:#FFFFFF;enable-background:new    ;}
	.st14{fill:#801817;}
	.st15{fill:#DB2726;}
</style>
<g id="Layer_1_00000088103557124993833940000000011748209070236572_">
</g>
<g id="Layer_2_00000099641004069112813510000001479279194757789067_">
</g>
<g id="Layer_3">
	<g>
		<g>
			<path class="st0" d="M1.4,7l0.1,21.6C1.7,33.1,2.4,33,2.4,33h6.3h0.1l0,0l0,0l0,0h0.1H15c0,0,0.8,0.1,1.1-4.3L16.1,7
				c0,0-0.1-4.2-1-5.4c-0.9-1-4.5-1.3-6.4-1.3l0,0l0,0l0,0l0,0C6.9,0.4,3.1,0.9,2.3,1.8C1.4,3,1.4,7,1.4,7z"/>
			<path class="st1" d="M1.4,7.2l0.1,21.5C1.7,33.1,2.4,33,2.4,33h6.3h0.1l0,0l0,0l0,0h0.1H15c0,0,0.8,0.1,1.1-4.3l0.1-21.5
				c0,0-0.1-4.2-1-5.4c-0.8-1-4.5-1.2-6.4-1.3l0,0l0,0l0,0l0,0C6.9,0.6,3.1,1.1,2.3,2C1.4,3.2,1.4,7.2,1.4,7.2z"/>
			<g>
				<path class="st2" d="M14.5,1.7L14.5,1.7c0.1-0.1-0.7-0.7-2-0.5L14.5,1.7z"/>
				<path class="st3" d="M12.3,3.5c-0.2,0-0.3-0.1-0.3-0.2l0.3-1.9c0-0.1,0.2-0.1,0.4-0.1l1.6,0.3c0.2,0,0.3,0.1,0.3,0.2l-0.3,1.9
					c0,0.1-0.2,0.1-0.3,0.1L12.3,3.5z"/>
			</g>
			<g>
				<path class="st2" d="M3.3,1.7L3.3,1.7C3.2,1.6,4,1,5.3,1.2L3.3,1.7z"/>
				<path class="st3" d="M5.5,3.5c0.2,0,0.3-0.1,0.3-0.2L5.5,1.3c0-0.1-0.2-0.1-0.4-0.1L3.5,1.5c-0.2,0-0.3,0.1-0.3,0.2l0.3,1.9
					c0,0.1,0.2,0.1,0.4,0.1L5.5,3.5z"/>
			</g>
		</g>
		<path class="st4" d="M1.4,7.4l0.1,21c0.2,4.3,0.9,4.2,0.9,4.2h6.3h0.1l0,0l0,0l0,0h0.1H15c0,0,0.8,0.1,1.1-4.2l0.1-21
			c0,0-0.1-4.1-1-5.2c-0.8-1-4.5-1.2-6.4-1.3l0,0l0,0l0,0l0,0C6.9,1,3.1,1.4,2.3,2.4C1.4,3.5,1.4,7.4,1.4,7.4z"/>
		<g>
			<path class="st5" d="M2.8,32.4c0.1-0.9,0-6.2-0.1-6.5s0.1-0.4,0.1-0.4l1.3-2.4c0.2-0.3,0.2-0.8,0.2-0.8V12.2
				c0-0.4-0.2-0.6-0.2-0.6S2.9,9.7,2.5,9.1C2.2,8.6,2.2,8.4,2.2,8.4s0.8-5.5,0.9-6c0.2-0.5,2.4-1.2,2.4-1.2v0
				C4.1,1.5,2.7,1.8,2.3,2.4c-0.9,1.1-1,5.1-1,5.1l0.1,21c0.2,4.3,0.9,4.2,0.9,4.2h0.2C2.8,32.5,2.8,32.4,2.8,32.4z"/>
			<path class="st5" d="M14.4,2.3c0.2,0.5,0.9,6,0.9,6s0,0.2-0.3,0.7c-0.4,0.6-1.6,2.4-1.6,2.4s-0.2,0.2-0.2,0.6v10.1
				c0,0,0,0.5,0.2,0.8l1.3,2.4c0,0,0.1,0.1,0.1,0.4c0,0.3-0.1,5.5-0.1,6.5c0,0,0,0.2,0.3,0.4c0.2-0.1,0.8-0.7,1-4.2l0.1-21.1
				c0,0-0.1-4.1-1-5.2c-0.5-0.5-1.7-0.9-3.1-1v0C12,1.2,14.2,1.9,14.4,2.3z"/>
		</g>
		<g>
			<path class="st6" d="M12.7,11.3c0,0-3.2-0.3-8.1,0c0,0-0.2,0.1-0.4-0.1C4,11,2.7,8.5,2.7,8.5S2.3,8,2.6,7.8
				C3,7.7,7.9,6.5,14.9,7.7c0,0,0.4,0.3,0,0.7c-0.1,0.2-1.6,2.7-1.6,2.7s-0.2,0.3-0.4,0.2H12.7z"/>
			<g>
				<g>
					<path class="st7" d="M12.7,11.3c0,0-3.2-0.3-8.3,0c0,0-0.2,0.1-0.4-0.1C3.9,11,2.5,8.4,2.5,8.4S2,7.6,2.5,7.5
						C2.9,7.4,7.8,6,15,7.4c0,0,0.4,0.4,0.1,0.9C15,8.5,13.4,11,13.4,11s-0.2,0.3-0.4,0.3H12.7z"/>
				</g>
				<path class="st8" d="M12.7,11.3c0,0-3.2-0.3-8.1,0c0,0-0.2,0.1-0.4-0.1C4,11,2.7,8.5,2.7,8.5S2.3,8,2.6,7.8
					C3,7.7,7.9,6.5,14.9,7.7c0,0,0.4,0.3,0,0.7c-0.1,0.2-1.6,2.7-1.6,2.7s-0.2,0.3-0.4,0.2H12.7z"/>
				<path class="st9" d="M12.7,11.3h0.2c0.2,0,0.4-0.3,0.4-0.3s0.6-1,1.1-1.8c-0.3,0.1-0.6,0.2-0.9,0.2c-0.9,0.2-1.8,0.3-2.8,0.4
					C9.9,10,9.2,10,8.4,10c-1.7,0-3.4,0-5-0.3c0,0,0,0-0.1,0c0.4,0.7,0.8,1.4,0.9,1.5c0.2,0.2,0.4,0.1,0.4,0.1
					C9.5,11,12.7,11.3,12.7,11.3z"/>
			</g>
		</g>
		<g>
			<g>
				<path class="st7" d="M12.5,23.1c0,0-2.9,0.3-7.5,0c0,0-0.2,0-0.3,0.1c-0.2,0.2-1.4,2.4-1.4,2.4s-0.3,0.5,0,0.6
					c0.3,0.1,4.8,1.4,11.3,0.1c0,0,0.3-0.2,0-0.6c-0.1-0.2-1.5-2.4-1.5-2.4s-0.2-0.2-0.4-0.2H12.5z"/>
			</g>
			<path class="st6" d="M12.5,23.2c0,0-2.9,0.2-7.5,0c0,0-0.2,0-0.3,0.1c-0.2,0.2-1.5,2.3-1.5,2.3s-0.3,0.5,0,0.6
				c0.3,0.1,4.8,1.2,11.3,0.1c0,0,0.3-0.2,0-0.6c-0.1-0.2-1.5-2.3-1.5-2.3s-0.2-0.2-0.4-0.2L12.5,23.2z"/>
			<path class="st8" d="M12.5,23.2c0,0-2.9,0.2-7.5,0c0,0-0.2,0-0.3,0.1c-0.2,0.2-1.5,2.3-1.5,2.3s-0.3,0.5,0,0.6
				c0.3,0.1,4.8,1.2,11.3,0.1c0,0,0.3-0.2,0-0.6c-0.1-0.2-1.5-2.3-1.5-2.3s-0.2-0.2-0.4-0.2L12.5,23.2z"/>
			<path class="st9" d="M5.5,24.2C6.8,24,8.3,24,9.7,24.1c0.6,0,1.1,0.1,1.7,0.1c0.6,0.1,1.1,0.2,1.7,0.3c0.4,0.1,0.8,0.3,1.1,0.4
				c-0.5-0.7-1-1.6-1-1.6s-0.2-0.2-0.4-0.2h-0.2c0,0-2.9,0.2-7.5,0c0,0-0.2,0-0.3,0.1c-0.1,0.1-0.4,0.6-0.8,1.2
				C4.4,24.3,4.9,24.2,5.5,24.2z"/>
		</g>
		<g class="st10">
			<path class="st4" d="M8.7,11.5c-1.3-0.1-4,0.2-4.3,0.3c-0.3,0.1,0,10,0,10.4c0,0.4,0.4,0.5,0.4,0.5s4.3,0.6,7.6,0
				c0,0,0.4,0,0.4-0.5c0-0.4,0.3-10.4,0-10.4C12.7,11.7,10,11.4,8.7,11.5L8.7,11.5z"/>
		</g>
		<g>
			<path class="st4" d="M15.1,7.2c0,0-6.7-1.6-12.8,0.3C2.3,7.5,7.6,5,15.1,7.2z"/>
		</g>
		<g>
			<path class="st11" d="M15.5,9.3v16.5c0,0,0,0.4-0.2,0.2l-1.7-2.7c0,0-0.2-0.4-0.2-0.8V12.1c0,0,0-0.3,0.2-0.7
				c0.2-0.4,1.8-2.5,1.8-2.5S15.5,8.9,15.5,9.3z"/>
			<g>
				<polygon class="st8" points="15.4,17.8 13.6,17.7 13.6,22.1 15.4,23.7 				"/>
				<path class="st8" d="M15.4,9.4c0-0.4-0.1-0.3-0.1-0.3s-1.4,2.1-1.5,2.5c-0.2,0.3-0.2,0.6-0.2,0.6v5.1l1.8-0.1V9.4z"/>
				<path class="st9" d="M14.7,20.5c-0.1-0.9-0.2-1.8-0.3-2.7l-0.8,0v4.4l1.7,1.4C15,22.6,14.9,21.5,14.7,20.5z"/>
				<path class="st9" d="M14.3,15.8c0-1.6,0.2-3.2,0.6-4.8c0.1-0.6,0.3-1.3,0.5-1.9c0,0-0.1,0-0.1,0s-1.3,2.1-1.5,2.5
					c-0.2,0.3-0.2,0.6-0.2,0.6v5.1l0.7,0C14.3,16.8,14.3,16.3,14.3,15.8z"/>
				<path class="st5" d="M15.4,25.6v-1.5l-1.8-1.9v0.1c0,0.4,0.2,0.8,0.2,0.8l1.4,2.6C15.4,26.1,15.4,25.6,15.4,25.6z"/>
			</g>
		</g>
		<g>
			<path class="st11" d="M1.9,9.3v16.5c0,0,0,0.4,0.2,0.2l1.7-2.7c0,0,0.2-0.4,0.2-0.8V12.1c0,0,0-0.3-0.2-0.7C3.7,11.1,2.1,9,2.1,9
				S1.9,8.9,1.9,9.3z"/>
			<g>
				<polygon class="st8" points="2,17.8 3.8,17.7 3.8,22.1 2,23.7 				"/>
				<path class="st8" d="M2,9.4C2,9,2.1,9.1,2.1,9.1s1.4,2.1,1.5,2.5c0.2,0.4,0.2,0.6,0.2,0.6v5.1L2,17.3V9.4z"/>
				<path class="st9" d="M2.7,20.5c0.1-0.9,0.2-1.8,0.3-2.7l0.8,0v4.4l-1.7,1.4C2.4,22.6,2.6,21.5,2.7,20.5z"/>
				<path class="st9" d="M3.1,15.8c0-1.6-0.2-3.2-0.6-4.8c-0.1-0.6-0.3-1.3-0.5-1.9c0,0,0.1,0,0.1,0s1.4,2.1,1.5,2.5
					c0.2,0.4,0.2,0.6,0.2,0.6v5.1l-0.8,0C3.1,16.8,3.1,16.3,3.1,15.8z"/>
				<path class="st5" d="M2,25.6v-1.5l1.8-1.9v0.1c0,0.4-0.2,0.8-0.2,0.8l-1.4,2.6C2,26.1,2,25.6,2,25.6z"/>
			</g>
		</g>
		<path class="st0" d="M14.7,32.2v-6C14.7,26.2,14.4,28.8,14.7,32.2z"/>
		<path class="st0" d="M2.9,32.2v-6C2.9,26.2,3.2,28.8,2.9,32.2z"/>
		<g>
			<path class="st2" d="M15.6,31.8L15,31.5c0,0-0.2-0.1-0.2,0.1v0.6c0,0,0,0.2,0.1,0.3c0.1,0.1,0.2,0.2,0.2,0.2s0,0,0.1,0
				c0.1-0.1,0.3-0.5,0.3-0.6C15.6,31.8,15.6,31.9,15.6,31.8z"/>
			<path class="st12" d="M15.2,32.1c0-0.1,0.1-0.3,0.1-0.4c0,0,0-0.1,0-0.1L15,31.5c0,0-0.2-0.1-0.2,0.1v0.6c0,0,0,0.2,0.1,0.3
				c0,0,0.1,0.1,0.1,0.1C15.1,32.4,15.1,32.3,15.2,32.1z"/>
			<path class="st13" d="M15,32.4c0-0.1,0-0.2-0.1-0.3c0-0.1,0-0.2,0-0.3c0.1-0.2,0.2-0.1,0.4,0L15,31.5c0,0-0.2-0.1-0.2,0.1v0.6
				c0,0,0,0.2,0.1,0.3c0.1,0.1,0.2,0.2,0.2,0.2s0,0,0.1,0C15.1,32.5,15,32.5,15,32.4z"/>
		</g>
		<g>
			<path class="st2" d="M1.9,31.8l0.5-0.3c0,0,0.2-0.1,0.2,0.1v0.6c0,0,0,0.2-0.1,0.3c-0.1,0.1-0.2,0.2-0.2,0.2s-0.1,0-0.1-0.1
				c-0.1-0.1-0.3-0.5-0.3-0.6C1.8,31.8,1.8,31.9,1.9,31.8z"/>
			<path class="st12" d="M2.3,32.1c0-0.1-0.1-0.3-0.1-0.4c0,0,0-0.1,0-0.1l0.2-0.1c0,0,0.2-0.1,0.2,0.1v0.6c0,0,0,0.2-0.1,0.3
				c0,0-0.1,0.1-0.1,0.1C2.4,32.4,2.3,32.3,2.3,32.1z"/>
			<path class="st13" d="M2.4,32.4c0-0.1,0-0.2,0.1-0.3c0-0.1,0-0.2,0-0.3c-0.1-0.2-0.2-0.1-0.4,0l0.3-0.2c0,0,0.2-0.1,0.2,0.1v0.6
				c0,0,0,0.2-0.1,0.3c-0.1,0.1-0.2,0.2-0.2,0.2s0,0-0.1,0C2.3,32.5,2.4,32.5,2.4,32.4z"/>
		</g>
		<g>
			<path class="st14" d="M15.6,9l-0.3-0.2c0,0-0.2-0.2,0-0.3c0.1-0.1,0.6,0,0.6,0L15.6,9z"/>
			<path class="st15" d="M17.1,8.9c0.1,0,0.1,0.1,0.1,0.1c0,0.2,0.1,0.4,0.1,0.6c-0.6-0.2-1.3-0.3-1.9-0.5c0-0.1,0-0.2,0.1-0.3
				c0.1-0.3,0.2-0.3,0.2-0.3C16,8.4,16.7,8.6,17.1,8.9z"/>
			<g class="st10">
				<path class="st4" d="M15.6,8.6c0.4,0.1,0.7,0.1,1.1,0.3C16.9,9,17,9.1,17.2,9.3c0.1,0.1,0.1,0.1,0.2,0.2c0-0.2-0.1-0.3-0.1-0.5
					c0,0-0.1-0.1-0.1-0.1c-0.4-0.4-1.1-0.5-1.5-0.5C15.7,8.5,15.6,8.5,15.6,8.6z"/>
			</g>
		</g>
		<g>
			<path class="st14" d="M2,9l0.3-0.2c0,0,0.2-0.2,0-0.3c-0.1-0.1-0.6,0-0.6,0L2,9z"/>
			<path class="st15" d="M0.5,8.9c0,0-0.1,0.1-0.1,0.1c0,0.2-0.1,0.4-0.1,0.6c0.7-0.2,1.3-0.3,1.9-0.5c0-0.1,0-0.2-0.1-0.3
				C2,8.4,1.9,8.5,1.9,8.5C1.6,8.4,0.9,8.6,0.5,8.9z"/>
			<g class="st10">
				<path class="st4" d="M2.1,8.6C1.7,8.6,1.3,8.7,1,8.9C0.7,9,0.6,9.1,0.4,9.3C0.4,9.4,0.3,9.5,0.2,9.6c0-0.2,0-0.3,0.1-0.5
					c0,0,0.1-0.1,0.1-0.1c0.4-0.4,1.2-0.5,1.5-0.5C1.9,8.5,2,8.5,2.1,8.6z"/>
			</g>
		</g>
		<g>
			<path class="st14" d="M1.7,17v-1.5c0,0,0-0.2-0.1-0.1c-0.1,0.1-0.1,0.3-0.1,0.4v1.1C1.6,16.8,1.6,17.1,1.7,17
				C1.7,17.1,1.7,17.1,1.7,17z"/>
			<path class="st4" d="M1.7,16.9v-1.3c0,0,0-0.2-0.1-0.1s-0.1,0.2-0.1,0.3v0.9C1.6,16.7,1.6,16.9,1.7,16.9
				C1.7,16.9,1.7,16.9,1.7,16.9z"/>
		</g>
		<g>
			<path class="st14" d="M1.7,24.2v-1.5c0,0,0-0.2-0.1-0.1c-0.1,0.1-0.1,0.3-0.1,0.4V24C1.6,24,1.6,24.2,1.7,24.2
				C1.7,24.3,1.7,24.3,1.7,24.2z"/>
			<path class="st4" d="M1.7,24.1v-1.3c0,0,0-0.2-0.1-0.1c-0.1,0.1-0.1,0.2-0.1,0.3v0.9C1.6,23.9,1.6,24.1,1.7,24.1
				C1.7,24.1,1.7,24.1,1.7,24.1z"/>
		</g>
		<g>
			<path class="st14" d="M15.6,17v-1.5c0,0,0-0.2,0.1-0.1c0.1,0.1,0.1,0.3,0.1,0.4v1.1C15.8,16.8,15.8,17.1,15.6,17
				C15.7,17.1,15.6,17.1,15.6,17z"/>
			<path class="st4" d="M15.6,16.9v-1.3c0,0,0-0.2,0.1-0.1c0.1,0.1,0.1,0.2,0.1,0.3v0.9C15.7,16.7,15.7,16.9,15.6,16.9
				C15.7,16.9,15.6,16.9,15.6,16.9z"/>
		</g>
		<g>
			<path class="st14" d="M15.6,24.2v-1.5c0,0,0-0.2,0.1-0.1c0.1,0.1,0.1,0.3,0.1,0.4V24C15.8,24,15.8,24.2,15.6,24.2
				C15.7,24.3,15.6,24.3,15.6,24.2z"/>
			<path class="st4" d="M15.6,24.1v-1.3c0,0,0-0.2,0.1-0.1c0.1,0.1,0.1,0.2,0.1,0.3v0.9C15.7,23.9,15.7,24.1,15.6,24.1
				C15.7,24.1,15.6,24.1,15.6,24.1z"/>
		</g>
	</g>
</g>
</svg>
