<?xml version="1.0" encoding="utf-8"?>
<!-- Generator: Adobe Illustrator 25.4.1, SVG Export Plug-In . SVG Version: 6.00 Build 0)  -->
<svg version="1.1" id="Layer_1" xmlns="http://www.w3.org/2000/svg" xmlns:xlink="http://www.w3.org/1999/xlink" x="0px" y="0px"
	 viewBox="0 0 18.7 51.9" style="enable-background:new 0 0 18.7 51.9;" xml:space="preserve">
<style type="text/css">
	.st0{display:none;}
	.st1{display:inline;}
	.st2{fill:#FFFFFF;}
	.st3{fill:#B6433A;}
	.st4{fill:#5E5E5E;}
	.st5{fill:#4FA9D3;}
	.st6{fill:#3891B2;}
	.st7{fill:#B84D2E;}
	.st8{fill:#D55C4D;}
	.st9{fill:#CD2527;}
	.st10{fill:#F15F59;}
	.st11{fill:#FFDE82;}
	.st12{fill:#FFFEFF;}
</style>
<g id="Layer_1_00000170986077588197780730000016405545446574173608_">
</g>
<g id="Layer_2_00000031183280608390262320000004848766757064176810_" class="st0">
	<g class="st1">
		<g>
			<g>
				<path class="st2" d="M9.3-91.1c-22.1,0-38.1,65.2-40,89.6c-2.7,33.9,5.6,136,5.6,136c10.2,1.2,21.9,2,34.4,2s24.2-0.7,34.4-2
					c0,0,8.2-102.1,5.6-136C47.3-25.9,31.4-91.1,9.3-91.1z"/>
				<path class="st3" d="M9.3-91.1c-22.1,0-38.1,65.2-40,89.6c-2.7,33.9,5.6,136,5.6,136c10.2,1.2,21.9,2,34.4,2s24.2-0.7,34.4-2
					c0,0,8.2-102.1,5.6-136C47.3-25.9,31.4-91.1,9.3-91.1z M47.3,16.1c0,38.2-5,103.8-5.9,116.2c-9.9,1.1-20.9,1.7-32.1,1.7
					s-22.2-0.6-32.1-1.7c-1-12.3-5.9-77.9-5.9-116.2c0-7.2,0.2-13,0.5-17.4C-26.1-28-9.8-88.6,9.3-88.6S44.7-28,46.8-1.3
					C47.1,3.1,47.3,9,47.3,16.1z"/>
				<g>
					<path class="st4" d="M39.4,30.8L39.4,30.8c0,14.7-0.7,35.5-2,61.9l0,0.5h-56.2l0-0.5c-1.3-26.3-2-47.1-2-61.9
						c0-6.3,0.1-11.6,0.4-15.5c0.8-12.7,5.3-39.1,12.8-58.4l0.1-0.2l0.2-0.1c5.4-1.6,11-2.4,16.6-2.4s11.2,0.8,16.6,2.4l0.2,0.1
						l0.1,0.2c7.5,19.2,12,45.7,12.8,58.4C39.3,19.2,39.4,24.4,39.4,30.8z M36.4,92.1c1.3-26.1,2-46.7,2-61.3l0,0
						c0-6.3-0.1-11.5-0.4-15.4c-0.8-12.5-5.3-38.7-12.7-57.9c-5.3-1.5-10.7-2.3-16.1-2.3S-1.5-44-6.8-42.5
						c-7.4,19.1-11.8,45.3-12.7,57.9c-0.3,3.9-0.4,9.1-0.4,15.4c0,14.6,0.7,35.3,2,61.3L36.4,92.1L36.4,92.1z"/>
				</g>
				<path class="st5" d="M-21.5,94c1.1,19.3,2.1,33.4,2.1,33.4c8.5,1.2,18.3,1.9,28.7,1.9c10.5,0,20.2-0.7,28.7-1.9
					c0,0,1-14.1,2.1-33.4L9.3,63.2L-21.5,94z"/>
				<path class="st6" d="M-16.1,90.5c0.9,17.1,1.7,29.7,1.7,29.7c7,1.1,15.1,1.7,23.7,1.7s16.7-0.6,23.7-1.7c0,0,0.8-12.5,1.7-29.7
					L9.3,63.2L-16.1,90.5z"/>
				<path class="st7" d="M-12.7,85.1c0.8,13.8,1.5,23.8,1.5,23.8c6.1,0.9,13,1.4,20.5,1.4s14.4-0.5,20.5-1.4c0,0,0.7-10.1,1.5-23.8
					l-22-22L-12.7,85.1z"/>
				<g>
					<path class="st5" d="M-5.9,7c-5.6,2.9-10.4,13.2-10.4,15.2l1,10.1h13.9L-5.9,7z"/>
					<path class="st5" d="M17.5,32.4L22.1,6c-2.5-1-5.2-1.6-8.1-1.6c-2.3,0-7,0-9.4,0C1.7,4.4-1,5-3.5,6l4.7,26.4H17.5z"/>
					<path class="st5" d="M20,32.4h13.9l1-10.1c0-2-4.8-12.3-10.4-15.2L20,32.4z"/>
				</g>
			</g>
			<g>
				<path class="st5" d="M-16,3.6h4.5c0-1,0.1-1.9,0.1-2.7c0.2-4.9,1-12.3,2.3-20.2h-3.5C-14-11.3-15.2-3.3-16,3.6z"/>
				<path class="st5" d="M30,3.6h4.5c-0.8-6.9-2-14.9-3.5-22.9h-3.5c1.3,7.9,2.1,15.3,2.3,20.2C30,1.7,30,2.6,30,3.6z"/>
				<path class="st5" d="M-8.5-22.8c1.1-6.4,2.5-12.9,4.1-18.5L-7.1-42c-0.1,0-0.1,0-0.2,0.1c-1.7,5.8-3.3,12.4-4.6,19.1L-8.5-22.8
					L-8.5-22.8z"/>
				<path class="st5" d="M27-22.8h3.4c-1.3-6.7-2.9-13.3-4.6-19.1c0,0-0.1,0-0.2-0.1l-2.7,0.7C24.6-35.7,25.9-29.2,27-22.8z"/>
			</g>
			<g>
				<path class="st4" d="M14.5-74.6v22.7H4.1v-22.7H14.5z M14-52.4v-21.8H4.6v21.8C4.6-52.4,14-52.4,14-52.4z"/>
			</g>
			<g>
				<path class="st4" d="M-2.8-75c0.7,0.5,0.9,1.4,0.5,2.2l-4.3,6.6c-0.5,0.7-1.4,0.9-2.2,0.5l0,0c-0.7-0.5-0.9-1.4-0.5-2.2l4.3-6.6
					C-4.5-75.2-3.5-75.4-2.8-75L-2.8-75z"/>
				<path class="st4" d="M27.4-65.8c0.7-0.5,0.9-1.4,0.5-2.2l-4.3-6.6c-0.5-0.7-1.4-0.9-2.2-0.5l0,0c-0.7,0.5-0.9,1.4-0.5,2.2
					l4.3,6.6C25.7-65.5,26.7-65.3,27.4-65.8L27.4-65.8z"/>
			</g>
			<g>
				<g>
					<polygon class="st5" points="35.3,54.1 35.3,31.2 23.1,54.1 					"/>
					<path class="st5" d="M20.4,59l-2.9,5.5l16.9,16.9c0.6-2,0.9-4.1,0.9-6.3V59L20.4,59L20.4,59z"/>
				</g>
				<g>
					<polygon class="st5" points="-4.5,54.1 -16.8,31.2 -16.8,54.1 					"/>
					<path class="st5" d="M-16.8,59v16.1c0,2.2,0.3,4.3,0.9,6.3L1.1,64.4L-1.9,59L-16.8,59L-16.8,59z"/>
				</g>
			</g>
			<path class="st2" d="M14,20.3c11,0,19.9,8.9,19.9,11.9v42.9c0,11-8.9,19.9-19.9,19.9H4.6c-11,0-19.9-8.9-19.9-19.9V32.2
				c0-3,8.9-11.9,19.9-11.9C6.9,20.3,11.6,20.3,14,20.3z"/>
			<polygon class="st8" points="10.9,34 9.9,50.6 8.7,50.6 7.7,34 			"/>
		</g>
	</g>
</g>
<g id="Layer_3">
</g>
<g id="Layer_4">
	<g>
		<g>
			<g>
				<path class="st9" d="M9.6,0.9C4.6,0.9,1,15.5,0.6,21C0,28.6,1.9,51.5,1.9,51.5c2.3,0.3,4.9,0.4,7.7,0.4s5.4-0.2,7.7-0.4
					c0,0,1.8-22.9,1.3-30.5C18.1,15.5,14.5,0.9,9.6,0.9z"/>
				<path class="st10" d="M9.6,0.9C4.6,0.9,1,15.5,0.6,21C0,28.6,1.9,51.5,1.9,51.5c2.3,0.3,4.9,0.4,7.7,0.4s5.4-0.2,7.7-0.4
					c0,0,1.8-22.9,1.3-30.5C18.1,15.5,14.5,0.9,9.6,0.9z M18.1,24.9c0,8.6-1.1,23.3-1.3,26c-2.2,0.3-4.7,0.4-7.2,0.4s-5-0.1-7.2-0.4
					c-0.2-2.8-1.3-17.5-1.3-26c0-1.6,0-2.9,0.1-3.9C1.6,15,5.3,1.4,9.6,1.4S17.5,15,18,21C18.1,22,18.1,23.3,18.1,24.9z"/>
				<g>
					<path class="st2" d="M16.3,28.2L16.3,28.2c0,3.3-0.2,8-0.5,13.9l0,0.1H3.3l0-0.1C3,36.2,2.8,31.5,2.8,28.2c0-1.4,0-2.6,0.1-3.5
						c0.2-2.8,1.2-8.8,2.9-13.1l0-0.1l0.1,0C7.1,11.2,8.3,11,9.6,11s2.5,0.2,3.7,0.5l0.1,0l0,0.1c1.7,4.3,2.7,10.2,2.9,13.1
						C16.3,25.6,16.3,26.8,16.3,28.2z M15.7,42c0.3-5.8,0.4-10.5,0.4-13.8l0,0c0-1.4,0-2.6-0.1-3.5c-0.2-2.8-1.2-8.7-2.8-13
						c-1.2-0.3-2.4-0.5-3.6-0.5c-1.2,0-2.4,0.2-3.6,0.5c-1.7,4.3-2.7,10.2-2.8,13c-0.1,0.9-0.1,2-0.1,3.5c0,3.3,0.2,7.9,0.4,13.8
						L15.7,42L15.7,42z"/>
				</g>
				<path class="st11" d="M2.7,42.4c0.2,4.3,0.5,7.5,0.5,7.5c1.9,0.3,4.1,0.4,6.4,0.4c2.3,0,4.5-0.2,6.4-0.4c0,0,0.2-3.2,0.5-7.5
					l-6.9-6.9L2.7,42.4z"/>
				<path class="st2" d="M3.9,41.6c0.2,3.8,0.4,6.7,0.4,6.7c1.6,0.2,3.4,0.4,5.3,0.4s3.7-0.1,5.3-0.4c0,0,0.2-2.8,0.4-6.7l-5.7-6.1
					L3.9,41.6z"/>
				<path class="st7" d="M4.7,40.4C4.8,43.5,5,45.7,5,45.7C6.3,45.9,7.9,46,9.6,46s3.2-0.1,4.6-0.3c0,0,0.2-2.3,0.3-5.3l-4.9-4.9
					L4.7,40.4z"/>
				<g>
					<path class="st11" d="M6.2,22.9c-1.3,0.6-2.3,3-2.3,3.4l0.2,2.3h3.1L6.2,22.9z"/>
					<path class="st11" d="M11.4,28.6l1-5.9c-0.6-0.2-1.2-0.4-1.8-0.4c-0.5,0-1.6,0-2.1,0c-0.7,0-1.3,0.1-1.8,0.4l1,5.9H11.4z"/>
					<path class="st11" d="M12,28.6h3.1l0.2-2.3c0-0.4-1.1-2.8-2.3-3.4L12,28.6z"/>
				</g>
			</g>
			<g>
				<path class="st2" d="M3.9,22.1h1c0-0.2,0-0.4,0-0.6C5,20.4,5.2,18.8,5.5,17H4.7C4.4,18.8,4.1,20.6,3.9,22.1z"/>
				<path class="st2" d="M14.2,22.1h1c-0.2-1.6-0.4-3.3-0.8-5.1h-0.8c0.3,1.8,0.5,3.4,0.5,4.5C14.2,21.7,14.2,21.9,14.2,22.1z"/>
				<path class="st2" d="M5.6,16.2c0.2-1.4,0.6-2.9,0.9-4.1l-0.6-0.2c0,0,0,0,0,0c-0.4,1.3-0.7,2.8-1,4.3L5.6,16.2L5.6,16.2z"/>
				<path class="st2" d="M13.6,16.2h0.8c-0.3-1.5-0.6-3-1-4.3c0,0,0,0,0,0l-0.6,0.2C13,13.3,13.3,14.8,13.6,16.2z"/>
			</g>
			<g>
				<path class="st2" d="M10.8,4.6v5.1H8.4V4.6H10.8z M10.6,9.6V4.7H8.5v4.9H10.6z"/>
			</g>
			<g>
				<path class="st12" d="M6.9,4.5C7,4.6,7.1,4.8,7,5L6,6.5C5.9,6.6,5.7,6.7,5.5,6.6l0,0C5.4,6.5,5.3,6.3,5.4,6.1l1-1.5
					C6.5,4.5,6.7,4.4,6.9,4.5L6.9,4.5z"/>
				<path class="st12" d="M13.6,6.6c0.2-0.1,0.2-0.3,0.1-0.5l-1-1.5c-0.1-0.2-0.3-0.2-0.5-0.1l0,0c-0.2,0.1-0.2,0.3-0.1,0.5l1,1.5
					C13.3,6.6,13.5,6.7,13.6,6.6L13.6,6.6z"/>
			</g>
			<g>
				<g>
					<polygon class="st11" points="15.4,33.4 15.4,28.3 12.7,33.4 					"/>
					<path class="st11" d="M12.1,34.5l-0.7,1.2l3.8,3.8c0.1-0.4,0.2-0.9,0.2-1.4v-3.6L12.1,34.5L12.1,34.5z"/>
				</g>
				<g>
					<polygon class="st11" points="6.5,33.4 3.7,28.3 3.7,33.4 					"/>
					<path class="st11" d="M3.7,34.5v3.6c0,0.5,0.1,1,0.2,1.4l3.8-3.8l-0.7-1.2L3.7,34.5L3.7,34.5z"/>
				</g>
			</g>
			<path class="st2" d="M10.6,25.9c2.5,0,4.5,2,4.5,2.7v9.6c0,2.5-2,4.5-4.5,4.5H8.5c-2.5,0-4.5-2-4.5-4.5v-9.6c0-0.7,2-2.7,4.5-2.7
				C9.1,25.9,10.1,25.9,10.6,25.9z"/>
			<polygon class="st8" points="9.9,28.9 9.7,32.7 9.5,32.7 9.2,28.9 			"/>
		</g>
	</g>
</g>
</svg>
