<?xml version="1.0" encoding="utf-8"?>
<!-- Generator: Adobe Illustrator 25.4.1, SVG Export Plug-In . SVG Version: 6.00 Build 0)  -->
<svg version="1.1" id="Layer_1" xmlns="http://www.w3.org/2000/svg" xmlns:xlink="http://www.w3.org/1999/xlink" x="0px" y="0px"
	 viewBox="0 0 16.2 53.2" style="enable-background:new 0 0 16.2 53.2;" xml:space="preserve">
<style type="text/css">
	.st0{fill:#B6433A;}
	.st1{fill:#CD2527;}
	.st2{fill:#010101;}
	.st3{fill:#FFFFFF;}
	.st4{fill:#4FA9D3;}
	.st5{fill:#FFEFC6;}
	.st6{fill:#6190B2;}
	.st7{fill:#D55C4D;}
</style>
<g id="Layer_1_00000105425081833654792910000000303501746595659414_">
	<g>
		<g>
			<g>
				<path class="st0" d="M8.1,18.3c-0.3,0-0.6-0.2-0.6-0.5c0-0.3,0.3-0.5,0.6-0.5c0.3,0,0.6,0.2,0.6,0.5C8.7,18,8.4,18.3,8.1,18.3z
					 M8.1,17.4c-0.2,0-0.4,0.2-0.4,0.3c0,0.2,0.2,0.3,0.4,0.3c0.2,0,0.4-0.2,0.4-0.3C8.5,17.6,8.3,17.4,8.1,17.4z"/>
			</g>
			<path class="st1" d="M15.4,11.6V46c0,3.4-3.3,6.2-7.4,6.2l0,0c-4.1,0-7.4-2.8-7.4-6.2V11.6C0.7,3.9,8.1,0,8.1,0
				S15.4,3.9,15.4,11.6z"/>
			<path class="st2" d="M0.7,11.6V46c0,3.4,3.3,6.2,7.4,6.2s7.4-2.8,7.4-6.2V11.6C15.4,3.9,8.1,0,8.1,0S0.7,3.9,0.7,11.6z
				 M14.9,11.6V46c0,3.2-3.1,5.8-6.9,5.8S1.2,49.2,1.2,46V11.6c0-6.5,5.6-10.3,6.9-11.1C9.4,1.3,14.9,5,14.9,11.6z"/>
			<path class="st3" d="M12.8,31.4c0.8,0,1.4,0.5,1.4,1.2l0,0c0,0.7-0.6,1.2-1.4,1.2H3.3c-0.8,0-1.4-0.5-1.4-1.2l0,0
				c0-0.7,0.6-1.2,1.4-1.2H12.8z"/>
			<path class="st3" d="M3.2,17.1v30.5H13V17.1c0-3.7-2.2-6.8-4.9-6.8C5.4,10.3,3.2,13.4,3.2,17.1z"/>
			<g>
				<path class="st4" d="M7.8,19.4v-5.3C5.7,14.2,4,15.7,4,17.5v0.1L7.8,19.4z"/>
				<polygon class="st4" points="7.8,19.9 4,18 4,22.2 7.8,24 				"/>
				<path class="st4" d="M8.3,19.4l3.8-1.9v-0.1c0-1.8-1.7-3.3-3.8-3.4V19.4z"/>
				<polygon class="st4" points="8.3,19.9 8.3,24 12.1,22.2 12.1,18 				"/>
			</g>
			<path class="st3" d="M4,19.3v4.7h8.1v-4.7c0-1.9-1.8-3.4-4-3.4C5.8,15.9,4,17.4,4,19.3z"/>
			<path class="st5" d="M12.4,19.3c1.1,0,1.9,0.7,1.9,1.6v5.2c0,0.9-0.9,1.6-1.9,1.6H3.7c-1.1,0-1.9-0.7-1.9-1.6V21
				c0-0.9,0.9-1.6,1.9-1.6H12.4z"/>
			<g>
				<path class="st3" d="M8.1,21.5c1,0,1.9,0.7,1.9,1.6v4.3H6.2v-4.3C6.2,22.2,7,21.5,8.1,21.5z"/>
			</g>
			<g>
				<path class="st2" d="M8.1,24.2c0.8,0,1.5,0.6,1.5,1.3v1.7h-3v-1.7C6.5,24.8,7.2,24.2,8.1,24.2z"/>
			</g>
			<g>
				<g>
					<path class="st6" d="M1.8,24c0.2,0,0.3,0.1,0.3,0.3v1.3c0,0.2-0.2,0.3-0.3,0.3l0,0c-0.2,0-0.3-0.1-0.3-0.3v-1.3
						C1.4,24.1,1.6,24,1.8,24L1.8,24z"/>
					<path class="st6" d="M1.8,21.2c0.2,0,0.3,0.1,0.3,0.3v1.3c0,0.2-0.2,0.3-0.3,0.3l0,0c-0.2,0-0.3-0.1-0.3-0.3v-1.3
						C1.4,21.4,1.6,21.2,1.8,21.2L1.8,21.2z"/>
				</g>
				<g>
					<path class="st6" d="M14.4,24c0.2,0,0.3,0.1,0.3,0.3v1.3c0,0.2-0.2,0.3-0.3,0.3l0,0c-0.2,0-0.3-0.1-0.3-0.3v-1.3
						C14,24.1,14.2,24,14.4,24L14.4,24z"/>
					<path class="st6" d="M14.4,21.2c0.2,0,0.3,0.1,0.3,0.3v1.3c0,0.2-0.2,0.3-0.3,0.3l0,0c-0.2,0-0.3-0.1-0.3-0.3v-1.3
						C14,21.4,14.2,21.2,14.4,21.2L14.4,21.2z"/>
				</g>
			</g>
			<g>
				<rect x="1.9" y="44.3" class="st2" width="0.8" height="2.2"/>
				<rect x="13.5" y="44.3" class="st2" width="0.8" height="2.2"/>
			</g>
			<g>
				<g>
					<polygon class="st2" points="13.4,6.2 14.4,8.4 13.7,8.6 12.8,6.4 					"/>
					<g>
						<polygon class="st0" points="13.7,7.8 13.8,8.1 13.1,8.3 13,8 						"/>
						<polygon class="st0" points="13.3,6.8 13.4,7.1 12.8,7.3 12.6,7 						"/>
					</g>
				</g>
				<g>
					<polygon class="st2" points="1.7,8.4 2.9,6.2 3.6,6.5 2.4,8.6 					"/>
					<g>
						<polygon class="st0" points="2.8,7.1 3,6.8 3.7,7.1 3.5,7.4 						"/>
						<polygon class="st0" points="2.3,8 2.5,7.7 3.1,8 3,8.3 						"/>
					</g>
				</g>
			</g>
			<g>
				<path class="st3" d="M8.1,6.1c0.5,0,0.8,0.3,0.8,0.7S8.5,7.5,8.1,7.5S7.2,7.2,7.2,6.8S7.6,6.1,8.1,6.1z"/>
				<rect x="7.7" y="3.1" class="st3" width="0.8" height="5.8"/>
			</g>
			<g>
				<g>
					<g>
						<path class="st0" d="M6.2,11.6H4.5v-1.4h1.7V11.6z M4.7,11.4H6v-1H4.7V11.4z"/>
					</g>
					<g>
						<g>
							<path class="st0" d="M5,10.7c-0.1,0-0.2-0.1-0.2-0.2v-0.4C4.8,10,4.9,9.9,5,9.9c0.1,0,0.2,0.1,0.2,0.2v0.4
								C5.3,10.6,5.2,10.7,5,10.7z"/>
						</g>
						<g>
							<path class="st0" d="M5.7,10.7c-0.1,0-0.2-0.1-0.2-0.2v-0.4c0-0.1,0.1-0.2,0.2-0.2c0.1,0,0.2,0.1,0.2,0.2v0.4
								C5.9,10.6,5.8,10.7,5.7,10.7z"/>
						</g>
					</g>
				</g>
				<g>
					<g>
						<path class="st0" d="M11.6,11.6H9.9v-1.4h1.7V11.6z M10.1,11.4h1.2v-1h-1.2V11.4z"/>
					</g>
					<g>
						<g>
							<path class="st0" d="M10.4,10.7c-0.1,0-0.2-0.1-0.2-0.2v-0.4c0-0.1,0.1-0.2,0.2-0.2c0.1,0,0.2,0.1,0.2,0.2v0.4
								C10.7,10.6,10.6,10.7,10.4,10.7z"/>
						</g>
						<g>
							<path class="st0" d="M11.1,10.7c-0.1,0-0.2-0.1-0.2-0.2v-0.4c0-0.1,0.1-0.2,0.2-0.2c0.1,0,0.2,0.1,0.2,0.2v0.4
								C11.3,10.6,11.2,10.7,11.1,10.7z"/>
						</g>
					</g>
				</g>
			</g>
			<g>
				<g>
					<g>
						<path class="st0" d="M6.2,39.4H4.5V38h1.7V39.4z M4.7,39.2H6v-1H4.7V39.2z"/>
					</g>
					<g>
						<g>
							<path class="st0" d="M5,38.6c-0.1,0-0.2-0.1-0.2-0.2V38c0-0.1,0.1-0.2,0.2-0.2c0.1,0,0.2,0.1,0.2,0.2v0.4
								C5.3,38.5,5.2,38.6,5,38.6z"/>
						</g>
						<g>
							<path class="st0" d="M5.7,38.6c-0.1,0-0.2-0.1-0.2-0.2V38c0-0.1,0.1-0.2,0.2-0.2c0.1,0,0.2,0.1,0.2,0.2v0.4
								C5.9,38.5,5.8,38.6,5.7,38.6z"/>
						</g>
					</g>
				</g>
				<g>
					<g>
						<path class="st0" d="M11.6,39.4H9.9V38h1.7V39.4z M10.1,39.2h1.2v-1h-1.2V39.2z"/>
					</g>
					<g>
						<g>
							<path class="st0" d="M10.4,38.6c-0.1,0-0.2-0.1-0.2-0.2V38c0-0.1,0.1-0.2,0.2-0.2c0.1,0,0.2,0.1,0.2,0.2v0.4
								C10.7,38.5,10.6,38.6,10.4,38.6z"/>
						</g>
						<g>
							<path class="st0" d="M11.1,38.6c-0.1,0-0.2-0.1-0.2-0.2V38c0-0.1,0.1-0.2,0.2-0.2c0.1,0,0.2,0.1,0.2,0.2v0.4
								C11.3,38.5,11.2,38.6,11.1,38.6z"/>
						</g>
					</g>
				</g>
			</g>
			<rect x="6.6" y="50" class="st2" width="2.9" height="1.2"/>
			<rect x="7.7" y="49.4" class="st6" width="0.7" height="2.4"/>
			<rect x="6.9" y="17.8" class="st7" width="2.3" height="0.8"/>
			<g>
				<g>
					<path class="st0" d="M5.2,26.9H4v-2.3h1.2C5.2,24.5,5.2,26.9,5.2,26.9z M4.2,26.7H5v-2H4.2V26.7z"/>
				</g>
				<g>
					<path class="st0" d="M12.2,26.9h-1.2v-2.3h1.2V26.9z M11.1,26.7h0.8v-2h-0.8V26.7z"/>
				</g>
			</g>
			<g>
				<rect x="4.1" y="37.9" class="st7" width="1.6" height="8.5"/>
				<rect x="10.5" y="37.9" class="st7" width="1.6" height="8.5"/>
			</g>
		</g>
	</g>
</g>
<g id="Layer_2_00000165216453052439096350000000066220948583829174_">
</g>
</svg>
